<svg xmlns="http://www.w3.org/2000/svg" viewBox="0 0 1200 675" role="img" aria-label="Full Stack">
  <defs>
    <linearGradient id="bg" x1="0" y1="0" x2="1" y2="1">
      <stop offset="0" stop-color="#f6f1e7"/>
      <stop offset="1" stop-color="#fffaf0"/>
    </linearGradient>
    <radialGradient id="orb" cx="40%" cy="30%" r="70%">
      <stop offset="0" stop-color="#48a6a7" stop-opacity="0.9"/>
      <stop offset="1" stop-color="#48a6a7" stop-opacity="0"/>
    </radialGradient>
    <filter id="shadow" x="-20%" y="-20%" width="140%" height="140%">
      <feDropShadow dx="0" dy="28" stdDeviation="32" flood-color="#17324d" flood-opacity="0.18"/>
    </filter>
  </defs>
  <rect width="1200" height="675" fill="url(#bg)"/>
  <circle cx="240" cy="140" r="250" fill="url(#orb)" opacity="0.65"/>
  <circle cx="1035" cy="560" r="300" fill="#e0ac4d" opacity="0.22"/>
  <path d="M85 470 C235 350 365 360 485 430 S730 560 910 420 S1100 250 1180 305" fill="none" stroke="#17324d" stroke-width="14" stroke-linecap="round" opacity="0.14"/>
  <path d="M92 514 C268 395 402 410 528 485 S753 602 950 468 S1116 324 1190 363" fill="none" stroke="#48a6a7" stroke-width="8" stroke-linecap="round" opacity="0.42"/>
  <g filter="url(#shadow)">
    <rect x="125" y="130" width="690" height="370" rx="46" fill="#fffdf7" opacity="0.92"/>
    <rect x="168" y="178" width="178" height="18" rx="9" fill="#48a6a7" opacity="0.75"/>
    <rect x="168" y="226" width="510" height="26" rx="13" fill="#17324d" opacity="0.90"/>
    <rect x="168" y="275" width="430" height="24" rx="12" fill="#17324d" opacity="0.68"/>
    <rect x="168" y="344" width="260" height="16" rx="8" fill="#e0ac4d" opacity="0.70"/>
    <rect x="168" y="384" width="475" height="16" rx="8" fill="#17324d" opacity="0.16"/>
    <rect x="168" y="420" width="370" height="16" rx="8" fill="#17324d" opacity="0.16"/>
  </g>
  <g transform="translate(800 112)">
    <circle cx="165" cy="165" r="132" fill="#17324d" opacity="0.08"/>
    <circle cx="165" cy="165" r="92" fill="none" stroke="#17324d" stroke-width="10" opacity="0.55"/>
    <path d="M82 182 L145 245 L266 96" fill="none" stroke="#48a6a7" stroke-width="22" stroke-linecap="round" stroke-linejoin="round"/>
  </g>
  <text x="126" y="575" font-family="Inter, Avenir, Helvetica, Arial, sans-serif" font-size="34" font-weight="700" fill="#17324d" opacity="0.76">Full Stack</text>
</svg>
